<?xml version="1.0" standalone="no"?>
<!DOCTYPE svg PUBLIC "-//W3C//DTD SVG 20010904//EN"
 "http://www.w3.org/TR/2001/REC-SVG-20010904/DTD/svg10.dtd">
<svg version="1.0" xmlns="http://www.w3.org/2000/svg"
 width="16.000000pt" height="16.000000pt" viewBox="0 0 16.000000 16.000000"
 preserveAspectRatio="xMidYMid meet">
<metadata>
Created by potrace 1.11, written by Peter Selinger 2001-2013
</metadata>
<g transform="translate(0.000000,16.000000) scale(0.002667,-0.002667)"
fill="#000000" stroke="none">
<path d="M2730 5884 c-58 -7 -121 -16 -140 -19 -19 -3 -50 -8 -67 -10 -18 -3
-61 -12 -95 -20 -35 -9 -74 -18 -88 -21 -38 -8 -284 -86 -295 -94 -5 -4 -41
-20 -80 -35 -177 -70 -429 -220 -599 -355 -167 -133 -411 -385 -483 -498 -10
-15 -20 -29 -24 -32 -17 -13 -143 -216 -192 -310 -87 -165 -186 -415 -218
-550 -4 -19 -15 -62 -23 -95 -17 -66 -32 -154 -51 -297 -23 -173 -23 -500 0
-668 14 -99 51 -300 65 -345 5 -16 21 -70 36 -120 73 -247 191 -493 346 -724
56 -82 141 -192 227 -289 30 -35 56 -73 57 -88 4 -32 6 -35 37 -37 15 -1 55
-29 101 -70 61 -55 74 -71 66 -85 -5 -9 -25 -69 -44 -132 -19 -63 -64 -212
-101 -330 -36 -118 -68 -222 -70 -230 -2 -8 -10 -34 -19 -57 -8 -24 -13 -43
-9 -43 3 0 1 -6 -5 -12 -9 -12 -16 -65 -13 -110 1 -12 15 -21 44 -28 23 -6 76
-20 117 -31 41 -12 82 -23 90 -25 8 -2 41 -10 73 -19 39 -11 63 -13 75 -6 15
8 54 110 68 177 2 11 51 170 130 419 43 136 38 122 48 157 l8 26 50 -29 c255
-150 639 -271 1008 -316 126 -15 539 -8 637 11 11 3 43 8 70 11 26 4 64 11 83
15 19 5 46 11 60 14 36 6 146 35 215 56 157 47 447 171 487 206 15 14 19 8 48
-78 17 -51 31 -102 31 -113 0 -10 4 -24 8 -30 7 -8 49 -140 65 -200 1 -5 9
-30 16 -55 7 -25 14 -49 16 -55 3 -16 54 -168 66 -198 12 -32 20 -32 143 2 39
11 106 29 150 41 44 12 87 23 94 24 27 5 36 32 24 68 -6 18 -26 80 -43 138
-57 186 -121 393 -147 475 -14 44 -36 115 -49 159 l-24 78 42 37 c23 20 105
99 183 176 237 237 433 523 555 815 18 41 38 89 45 105 53 120 128 411 151
580 4 28 8 59 11 70 7 34 16 215 16 315 1 123 -12 302 -27 385 -3 17 -8 48
-12 70 -5 35 -27 139 -38 185 -26 105 -61 220 -76 255 -5 11 -23 58 -41 104
-53 140 -159 342 -252 481 -323 480 -795 852 -1340 1054 -201 75 -360 113
-642 153 -78 11 -458 9 -555 -3z"/>
</g>
</svg>
